name C:\Users\u0150099\Documents\master_thesis\3dpredictsim\Results\debug\Fal_s1_mtp_sc_cspx10_MTPp_k17_d05_ig21.mot
datacolumns 126
datarows 4
range 1.59330752 1.62517367
endheader
time	pelvis_tilt	pelvis_list	pelvis_rotation	pelvis_tx	pelvis_ty	pelvis_tz	hip_flexion_l	hip_adduction_l	hip_rotation_l	hip_flexion_r	hip_adduction_r	hip_rotation_r	knee_angle_l	knee_angle_r	ankle_angle_l	ankle_angle_r	subtalar_angle_l	subtalar_angle_r	mtj_angle_l	mtj_angle_r	mtp_angle_l	mtp_angle_r	lumbar_extension	lumbar_bending	lumbar_rotation	arm_flex_l	arm_add_l	arm_rot_l	arm_flex_r	arm_add_r	arm_rot_r	elbow_flex_l	elbow_flex_r	glut_med1_l/activation	glut_med2_l/activation	glut_med3_l/activation	glut_min1_l/activation	glut_min2_l/activation	glut_min3_l/activation	semimem_l/activation	semiten_l/activation	bifemlh_l/activation	bifemsh_l/activation	sar_l/activation	add_long_l/activation	add_brev_l/activation	add_mag1_l/activation	add_mag2_l/activation	add_mag3_l/activation	tfl_l/activation	pect_l/activation	grac_l/activation	glut_max1_l/activation	glut_max2_l/activation	glut_max3_l/activation	iliacus_l/activation	psoas_l/activation	quad_fem_l/activation	gem_l/activation	peri_l/activation	rect_fem_l/activation	vas_med_l/activation	vas_int_l/activation	vas_lat_l/activation	med_gas_l/activation	lat_gas_l/activation	soleus_l/activation	tib_post_l/activation	flex_dig_l/activation	flex_hal_l/activation	tib_ant_l/activation	per_brev_l/activation	per_long_l/activation	per_tert_l/activation	ext_dig_l/activation	ext_hal_l/activation	ercspn_l/activation	intobl_l/activation	extobl_l/activation	glut_med1_r/activation	glut_med2_r/activation	glut_med3_r/activation	glut_min1_r/activation	glut_min2_r/activation	glut_min3_r/activation	semimem_r/activation	semiten_r/activation	bifemlh_r/activation	bifemsh_r/activation	sar_r/activation	add_long_r/activation	add_brev_r/activation	add_mag1_r/activation	add_mag2_r/activation	add_mag3_r/activation	tfl_r/activation	pect_r/activation	grac_r/activation	glut_max1_r/activation	glut_max2_r/activation	glut_max3_r/activation	iliacus_r/activation	psoas_r/activation	quad_fem_r/activation	gem_r/activation	peri_r/activation	rect_fem_r/activation	vas_med_r/activation	vas_int_r/activation	vas_lat_r/activation	med_gas_r/activation	lat_gas_r/activation	soleus_r/activation	tib_post_r/activation	flex_dig_r/activation	flex_hal_r/activation	tib_ant_r/activation	per_brev_r/activation	per_long_r/activation	per_tert_r/activation	ext_dig_r/activation	ext_hal_r/activation	ercspn_r/activation	intobl_r/activation	extobl_r/activation	
          1.59330752	         -2.92959041	          1.15318363	         -3.87090367	          2.11909900	          0.92340057	          0.00539565	         28.85292215	          2.28040035	         -2.30668286	        -17.41532290	          0.70796210	          8.63236539	         -9.11068306	         -5.43575078	          7.85231682	          4.98397069	         -2.06364931	          9.02307382	          0.27476844	         16.82749283	         -2.99132151	         -0.28381195	          1.80383864	         -9.35865958	        -13.88016171	          5.38977714	          6.89724082	        -13.84708220	         18.11314426	         22.94627388	         32.88500775	         86.51662706	         86.51662706	          0.06870217	          0.05000055	          0.05460005	          0.05000049	          0.05000059	          0.05000141	          0.22780409	          0.06927128	          0.27353862	          0.06991369	          0.05000557	          0.13770531	          0.13221000	          0.10774484	          0.11616525	          0.12786915	          0.05130314	          0.06378517	          0.11973104	          0.05885008	          0.05000067	          0.08675212	          0.05105351	          0.06251837	          0.18275844	          0.05000063	          0.05000069	          0.05000023	          0.05000072	          0.05000071	          0.05000060	          0.05000053	          0.05000057	          0.05000014	          0.05556305	          0.05169516	          0.05041407	          0.42243803	          0.27027754	          0.16684601	          0.16397849	          0.39332248	          0.18310609	          0.06927042	          0.08226178	          0.11542661	          0.32906943	          0.14308172	          0.08153394	          0.45392242	          0.30830816	          0.16231988	          0.05000135	          0.05000026	          0.05000018	          0.10051954	          0.12085936	          0.05000037	          0.05000017	          0.05000025	          0.05000075	          0.05000062	          0.56108565	          0.05000118	          0.05000047	          0.05002261	          0.05000110	          0.05000075	          0.37202663	          0.80723990	          0.05000010	          0.05000109	          0.06386648	          0.25574629	          0.05000068	          0.05000065	          0.05000063	          0.32039959	          0.42265705	          0.33757014	          0.37088325	          0.50389958	          0.51727099	          0.06927049	          0.05015381	          0.06927034	          0.05000018	          0.05000003	          0.05885197	          0.05000001	          0.05000001	          0.05000002	
          1.60392957	         -2.92573518	          1.24591373	         -4.13572336	          2.13581613	          0.92278763	          0.00502310	         28.54465205	          2.64662385	         -2.18021972	        -17.29698644	          0.43439238	          8.46324145	         -9.35801723	         -7.37282523	          7.47871366	          4.19872468	         -2.28770145	         10.07675491	          0.33675273	         18.23143172	         -2.83337024	         -0.50572835	          1.92733936	        -10.29856856	        -13.80679536	          4.51179230	          6.75379941	        -13.96300845	         18.83410223	         22.84232336	         34.01471760	         86.51662706	         86.51662706	          0.05885165	          0.05885151	          0.05000021	          0.05885174	          0.05885170	          0.05176919	          0.20094418	          0.05885269	          0.24241148	          0.05939882	          0.05000074	          0.15227505	          0.26596215	          0.09153974	          0.09869540	          0.14777518	          0.05000027	          0.08156709	          0.10173322	          0.05000042	          0.14397600	          0.20299575	          0.06269190	          0.05311599	          0.20473896	          0.21697660	          0.09838269	          0.05000037	          0.05885015	          0.05885054	          0.05884769	          0.05323725	          0.05000178	          0.05000011	          0.05000015	          0.06926983	          0.05000107	          0.48411909	          0.26007564	          0.14851548	          0.22799384	          0.42669886	          0.21772105	          0.05885167	          0.06988904	          0.09806565	          0.27957517	          0.12156125	          0.06927068	          0.38564943	          0.26193651	          0.13790587	          0.05000156	          0.05000033	          0.05000021	          0.08540071	          0.10268136	          0.11522151	          0.12824762	          0.05000191	          0.05000529	          0.05000145	          0.52680798	          0.09595209	          0.05000130	          0.05000141	          0.05000119	          0.05000120	          0.31607127	          0.74566720	          0.05000020	          0.05000060	          0.05426059	          0.26179438	          0.06526831	          0.05424554	          0.08431982	          0.27220926	          0.35908649	          0.28679724	          0.34651365	          0.42942563	          0.45555112	          0.05885173	          0.05000053	          0.05885167	          0.05000014	          0.05000004	          0.05000031	          0.05000012	          0.05057709	          0.05000075	
          1.61455162	         -2.91809737	          1.34938870	         -4.38103286	          2.15279409	          0.92224549	          0.00462956	         28.22517793	          2.98085033	         -2.01562573	        -17.06908071	          0.14995087	          8.25890722	        -10.20158501	         -9.46812161	          6.72258864	          3.16788172	         -2.46218027	         11.15265163	          0.38940064	         19.66659646	         -2.65870905	         -0.74315265	          2.04219796	        -11.20308689	        -13.69282997	          3.61813208	          6.50770663	        -14.03417856	         19.30508012	         22.60759738	         35.14730592	         86.51662706	         86.51662706	          0.05000001	          0.05000006	          0.12528404	          0.05000007	          0.05000007	          0.05000010	          0.17072080	          0.05000134	          0.20595113	          0.07837731	          0.06927075	          0.12937227	          0.25733505	          0.37943864	          0.26724224	          0.18582989	          0.05000045	          0.06929891	          0.18466589	          0.09402738	          0.15852001	          0.19893562	          0.06927033	          0.06927044	          0.49704892	          0.18434187	          0.08358530	          0.05000111	          0.05000038	          0.05000035	          0.05000032	          0.06749914	          0.06927046	          0.06495430	          0.05885191	          0.05885167	          0.05885226	          0.41830755	          0.27908741	          0.17724960	          0.19370203	          0.43614558	          0.18497455	          0.05000000	          0.05937725	          0.08331589	          0.23752515	          0.10327761	          0.05885192	          0.32764514	          0.22253947	          0.11716390	          0.05000700	          0.05000163	          0.05885143	          0.07255587	          0.08723745	          0.17995000	          0.28374338	          0.15832456	          0.05885300	          0.07456501	          0.44778862	          0.08152114	          0.05884842	          0.05883348	          0.05885119	          0.05885188	          0.26853197	          0.67076342	          0.05885180	          0.05885201	          0.05885163	          0.26742279	          0.14273272	          0.15193456	          0.09859739	          0.23126708	          0.30507738	          0.24366093	          0.29439587	          0.36483722	          0.38703328	          0.05000003	          0.05000006	          0.05000014	          0.05000005	          0.05000002	          0.05000010	          0.06266691	          0.06053246	          0.05885241	
          1.62517367	         -2.90753343	          1.47631397	         -4.59824142	          2.16991636	          0.92176007	          0.00424517	         27.86835518	          3.23637500	         -1.81197867	        -16.74275794	         -0.15001752	          8.02541285	        -11.30196241	        -11.67595678	          5.72709273	          1.86741604	         -2.62719574	         12.19511594	          0.29997598	         21.09020396	         -2.47609222	         -1.00853451	          2.14552683	        -12.05230279	        -13.61278928	          3.09543633	          6.16568012	        -14.02531013	         19.38275061	         22.25900796	         36.27235774	         86.51662706	         86.51662706	          0.34438567	          0.37164419	          0.40226510	          0.44383831	          0.42145865	          0.32012406	          0.14504323	          0.10851990	          0.17497468	          0.06927052	          0.05885208	          0.10991385	          0.21863028	          0.32236853	          0.22704739	          0.22978173	          0.05000062	          0.05887658	          0.15689133	          0.25557612	          0.25044981	          0.26155634	          0.05885174	          0.05885174	          0.42228933	          0.15661565	          0.12216057	          0.05000006	          0.05000012	          0.05000013	          0.05000010	          0.05734681	          0.05885171	          0.05518473	          0.05000019	          0.05000025	          0.05000056	          0.59486742	          0.34049405	          0.15059043	          0.52796631	          0.56695061	          0.45029123	          0.07481819	          0.08153433	          0.07078461	          0.21656994	          0.08774396	          0.05000020	          0.27836873	          0.18906805	          0.09954167	          0.05000120	          0.05000017	          0.05000010	          0.06164298	          0.07411644	          0.18625306	          0.24106664	          0.13451155	          0.05000170	          0.06335008	          0.54452333	          0.06926272	          0.05000056	          0.05000098	          0.05000066	          0.05000055	          0.22814301	          0.65469201	          0.05000013	          0.05000042	          0.05000006	          0.22720061	          0.12126480	          0.12908260	          0.08376771	          0.19648290	          0.25919161	          0.20701262	          0.25011674	          0.30996327	          0.32882088	          0.08631879	          0.10740622	          0.08148238	          0.05000033	          0.12335152	          0.05000078	          0.09974478	          0.05142796	          0.05000062	
